<svg xmlns="http://www.w3.org/2000/svg" viewBox="0 0 1200 900" fill="none" aria-hidden="true">
  <defs>
    <radialGradient id="fade" cx="50%" cy="50%" r="55%">
      <stop offset="0%" stop-color="white" stop-opacity="1"/>
      <stop offset="50%" stop-color="white" stop-opacity="0.9"/>
      <stop offset="100%" stop-color="white" stop-opacity="0"/>
    </radialGradient>
    <mask id="fadeMask">
      <rect width="1200" height="900" fill="url(#fade)"/>
    </mask>
  </defs>
  <rect width="1200" height="900" fill="#B8F0C8"/>
  <g mask="url(#fadeMask)" stroke="#1A1A1A" stroke-opacity="0.1" stroke-width="1" stroke-linecap="round">
    <path d="M9.2,6.9L24.9,7.6L40.7,8.4L56.4,9.2L72.1,10.1L87.9,11.1L103.7,12.1L119.4,13.1L135.2,14.2L150.9,15.4L166.6,16.6L182.3,17.9L197.9,19.2L213.5,20.6L229.0,22.0L244.5,23.4L259.9,24.9L275.2,26.4L290.5,27.9L305.6,29.5L320.7,31.0L335.6,32.6L350.5,34.1L365.2,35.6L379.8,37.1L394.3,38.6L408.7,40.0L422.9,41.4L437.1,42.7L451.1,44.0L465.0,45.1L478.9,46.2L492.6,47.2L506.2,48.1L519.8,48.9L533.3,49.6L546.7,50.1L560.1,50.6L573.4,50.9L586.7,51.1L600.0,51.1L613.3,51.1L626.6,50.9L639.9,50.6L653.3,50.1L666.7,49.6L680.2,48.9L693.8,48.1L707.4,47.2L721.1,46.2L735.0,45.1L748.9,44.0L762.9,42.7L777.1,41.4L791.3,40.0L805.7,38.6L820.2,37.1L834.8,35.6L849.5,34.1L864.4,32.6L879.3,31.0L894.4,29.5L909.5,27.9L924.8,26.4L940.1,24.9L955.5,23.4L971.0,22.0L986.5,20.6L1002.1,19.2L1017.7,17.9L1033.4,16.6L1049.1,15.4L1064.8,14.2L1080.6,13.1L1096.3,12.1L1112.1,11.1L1127.9,10.1L1143.6,9.2L1159.3,8.4L1175.1,7.6L1190.8,6.9"/>
    <path d="M11.4,52.7L27.3,53.5L43.2,54.4L59.1,55.3L75.0,56.3L91.0,57.3L106.9,58.4L122.9,59.6L138.8,60.8L154.7,62.1L170.6,63.5L186.4,64.9L202.2,66.4L217.9,67.9L233.6,69.5L249.2,71.1L264.7,72.7L280.1,74.4L295.4,76.1L310.5,77.8L325.6,79.6L340.5,81.3L355.3,83.0L370.0,84.7L384.5,86.4L398.9,88.0L413.1,89.6L427.2,91.1L441.2,92.6L455.0,94.0L468.6,95.3L482.2,96.5L495.6,97.6L508.9,98.6L522.1,99.5L535.2,100.2L548.3,100.9L561.3,101.3L574.2,101.7L587.1,101.9L600.0,102.0L612.9,101.9L625.8,101.7L638.7,101.3L651.7,100.9L664.8,100.2L677.9,99.5L691.1,98.6L704.4,97.6L717.8,96.5L731.4,95.3L745.0,94.0L758.8,92.6L772.8,91.1L786.9,89.6L801.1,88.0L815.5,86.4L830.0,84.7L844.7,83.0L859.5,81.3L874.4,79.6L889.5,77.8L904.6,76.1L919.9,74.4L935.3,72.7L950.8,71.1L966.4,69.5L982.1,67.9L997.8,66.4L1013.6,64.9L1029.4,63.5L1045.3,62.1L1061.2,60.8L1077.1,59.6L1093.1,58.4L1109.0,57.3L1125.0,56.3L1140.9,55.3L1156.8,54.4L1172.7,53.5L1188.6,52.7"/>
    <path d="M13.8,98.3L29.9,99.2L46.0,100.1L62.1,101.1L78.2,102.1L94.3,103.3L110.5,104.5L126.6,105.7L142.7,107.1L158.8,108.4L174.9,109.9L190.9,111.4L206.9,113.0L222.7,114.7L238.5,116.3L254.2,118.1L269.9,119.9L285.3,121.7L300.7,123.5L315.9,125.3L331.0,127.2L345.9,129.1L360.7,130.9L375.3,132.7L389.7,134.5L403.9,136.3L418.0,138.0L431.9,139.7L445.6,141.2L459.2,142.7L472.6,144.1L485.8,145.4L498.9,146.6L511.8,147.7L524.7,148.6L537.4,149.4L550.0,150.1L562.6,150.6L575.1,151.0L587.6,151.3L600.0,151.3L612.4,151.3L624.9,151.0L637.4,150.6L650.0,150.1L662.6,149.4L675.3,148.6L688.2,147.7L701.1,146.6L714.2,145.4L727.4,144.1L740.8,142.7L754.4,141.2L768.1,139.7L782.0,138.0L796.1,136.3L810.3,134.5L824.7,132.7L839.3,130.9L854.1,129.1L869.0,127.2L884.1,125.3L899.3,123.5L914.7,121.7L930.1,119.9L945.8,118.1L961.5,116.3L977.3,114.7L993.1,113.0L1009.1,111.4L1025.1,109.9L1041.2,108.4L1057.3,107.1L1073.4,105.7L1089.5,104.5L1105.7,103.3L1121.8,102.1L1137.9,101.1L1154.0,100.1L1170.1,99.2L1186.2,98.3"/>
    <path d="M16.4,143.6L32.6,144.5L48.9,145.4L65.2,146.5L81.6,147.6L97.9,148.7L114.2,150.0L130.6,151.3L146.9,152.7L163.2,154.1L179.5,155.6L195.7,157.2L211.8,158.8L227.8,160.5L243.8,162.3L259.6,164.1L275.3,165.9L290.9,167.8L306.3,169.7L321.6,171.6L336.7,173.5L351.6,175.5L366.3,177.4L380.8,179.3L395.1,181.1L409.3,183.0L423.1,184.7L436.8,186.4L450.3,188.1L463.6,189.6L476.7,191.1L489.6,192.4L502.3,193.6L514.9,194.8L527.4,195.7L539.7,196.6L551.9,197.3L564.0,197.8L576.0,198.2L588.0,198.4L600.0,198.5L612.0,198.4L624.0,198.2L636.0,197.8L648.1,197.3L660.3,196.6L672.6,195.7L685.1,194.8L697.7,193.6L710.4,192.4L723.3,191.1L736.4,189.6L749.7,188.1L763.2,186.4L776.9,184.7L790.7,183.0L804.9,181.1L819.2,179.3L833.7,177.4L848.4,175.5L863.3,173.5L878.4,171.6L893.7,169.7L909.1,167.8L924.7,165.9L940.4,164.1L956.2,162.3L972.2,160.5L988.2,158.8L1004.3,157.2L1020.5,155.6L1036.8,154.1L1053.1,152.7L1069.4,151.3L1085.8,150.0L1102.1,148.7L1118.4,147.6L1134.8,146.5L1151.1,145.4L1167.4,144.5L1183.6,143.6"/>
    <path d="M19.0,188.5L35.4,189.4L51.9,190.4L68.4,191.4L84.9,192.5L101.5,193.6L118.1,194.9L134.6,196.2L151.2,197.5L167.7,199.0L184.1,200.5L200.5,202.0L216.8,203.7L233.0,205.3L249.1,207.1L265.1,208.9L280.9,210.7L296.6,212.5L312.1,214.4L327.4,216.3L342.5,218.2L357.4,220.1L372.0,222.0L386.5,223.9L400.7,225.8L414.6,227.6L428.4,229.3L441.9,231.0L455.1,232.6L468.1,234.2L480.9,235.6L493.5,237.0L505.9,238.2L518.1,239.3L530.1,240.3L542.0,241.1L553.7,241.8L565.4,242.3L577.0,242.7L588.5,243.0L600.0,243.0L611.5,243.0L623.0,242.7L634.6,242.3L646.3,241.8L658.0,241.1L669.9,240.3L681.9,239.3L694.1,238.2L706.5,237.0L719.1,235.6L731.9,234.2L744.9,232.6L758.1,231.0L771.6,229.3L785.4,227.6L799.3,225.8L813.5,223.9L828.0,222.0L842.6,220.1L857.5,218.2L872.6,216.3L887.9,214.4L903.4,212.5L919.1,210.7L934.9,208.9L950.9,207.1L967.0,205.3L983.2,203.7L999.5,202.0L1015.9,200.5L1032.3,199.0L1048.8,197.5L1065.4,196.2L1081.9,194.9L1098.5,193.6L1115.1,192.5L1131.6,191.4L1148.1,190.4L1164.6,189.4L1181.0,188.5"/>
    <path d="M21.5,233.0L38.1,233.9L54.8,234.8L71.5,235.7L88.2,236.8L105.0,237.9L121.8,239.0L138.5,240.2L155.3,241.5L172.0,242.9L188.6,244.3L205.2,245.8L221.6,247.3L238.0,248.9L254.3,250.5L270.4,252.2L286.3,253.9L302.1,255.7L317.6,257.5L333.0,259.3L348.1,261.1L363.0,262.9L377.6,264.6L391.9,266.4L406.0,268.2L419.9,269.9L433.4,271.5L446.7,273.1L459.7,274.7L472.5,276.1L485.0,277.5L497.2,278.7L509.3,279.9L521.1,280.9L532.7,281.8L544.2,282.6L555.5,283.3L566.8,283.8L577.9,284.1L589.0,284.4L600.0,284.4L611.0,284.4L622.1,284.1L633.2,283.8L644.5,283.3L655.8,282.6L667.3,281.8L678.9,280.9L690.7,279.9L702.8,278.7L715.0,277.5L727.5,276.1L740.3,274.7L753.3,273.1L766.6,271.5L780.1,269.9L794.0,268.2L808.1,266.4L822.4,264.6L837.0,262.9L851.9,261.1L867.0,259.3L882.4,257.5L897.9,255.7L913.7,253.9L929.6,252.2L945.7,250.5L962.0,248.9L978.4,247.3L994.8,245.8L1011.4,244.3L1028.0,242.9L1044.7,241.5L1061.5,240.2L1078.2,239.0L1095.0,237.9L1111.8,236.8L1128.5,235.7L1145.2,234.8L1161.9,233.9L1178.5,233.0"/>
    <path d="M23.7,277.1L40.5,277.9L57.4,278.7L74.3,279.5L91.2,280.4L108.2,281.4L125.1,282.4L142.1,283.5L159.0,284.6L175.9,285.8L192.7,287.1L209.4,288.4L226.1,289.7L242.6,291.2L259.0,292.6L275.2,294.1L291.2,295.6L307.1,297.2L322.7,298.7L338.1,300.3L353.2,301.9L368.1,303.5L382.6,305.1L396.9,306.7L410.9,308.2L424.7,309.7L438.1,311.2L451.2,312.6L464.0,314.0L476.5,315.2L488.7,316.4L500.7,317.6L512.4,318.6L523.9,319.5L535.2,320.3L546.3,321.0L557.2,321.6L568.0,322.0L578.7,322.4L589.4,322.6L600.0,322.6L610.6,322.6L621.3,322.4L632.0,322.0L642.8,321.6L653.7,321.0L664.8,320.3L676.1,319.5L687.6,318.6L699.3,317.6L711.3,316.4L723.5,315.2L736.0,314.0L748.8,312.6L761.9,311.2L775.3,309.7L789.1,308.2L803.1,306.7L817.4,305.1L831.9,303.5L846.8,301.9L861.9,300.3L877.3,298.7L892.9,297.2L908.8,295.6L924.8,294.1L941.0,292.6L957.4,291.2L973.9,289.7L990.6,288.4L1007.3,287.1L1024.1,285.8L1041.0,284.6L1057.9,283.5L1074.9,282.4L1091.8,281.4L1108.8,280.4L1125.7,279.5L1142.6,278.7L1159.5,277.9L1176.3,277.1"/>
    <path d="M25.7,320.8L42.6,321.4L59.7,322.0L76.7,322.7L93.8,323.5L110.9,324.2L128.0,325.1L145.1,325.9L162.2,326.9L179.2,327.8L196.2,328.9L213.1,329.9L229.9,331.0L246.5,332.2L263.0,333.3L279.3,334.5L295.4,335.8L311.3,337.0L327.0,338.3L342.4,339.6L357.6,340.9L372.4,342.2L387.0,343.5L401.2,344.8L415.1,346.0L428.7,347.2L442.0,348.4L454.9,349.6L467.6,350.7L479.9,351.7L491.9,352.7L503.6,353.6L515.0,354.4L526.2,355.2L537.2,355.8L548.0,356.4L558.6,356.9L569.1,357.2L579.4,357.5L589.7,357.6L600.0,357.7L610.3,357.6L620.6,357.5L630.9,357.2L641.4,356.9L652.0,356.4L662.8,355.8L673.8,355.2L685.0,354.4L696.4,353.6L708.1,352.7L720.1,351.7L732.4,350.7L745.1,349.6L758.0,348.4L771.3,347.2L784.9,346.0L798.8,344.8L813.0,343.5L827.6,342.2L842.4,340.9L857.6,339.6L873.0,338.3L888.7,337.0L904.6,335.8L920.7,334.5L937.0,333.3L953.5,332.2L970.1,331.0L986.9,329.9L1003.8,328.9L1020.8,327.8L1037.8,326.9L1054.9,325.9L1072.0,325.1L1089.1,324.2L1106.2,323.5L1123.3,322.7L1140.3,322.0L1157.4,321.4L1174.3,320.8"/>
    <path d="M27.2,364.1L44.2,364.5L61.4,365.0L78.5,365.4L95.8,366.0L113.0,366.5L130.2,367.1L147.5,367.7L164.7,368.4L181.8,369.1L198.9,369.8L215.9,370.5L232.7,371.3L249.5,372.1L266.1,372.9L282.4,373.8L298.6,374.7L314.6,375.5L330.3,376.4L345.7,377.4L360.9,378.3L375.7,379.2L390.3,380.1L404.5,381.0L418.3,381.9L431.8,382.7L445.0,383.6L457.8,384.4L470.3,385.2L482.5,385.9L494.3,386.6L505.8,387.2L517.1,387.8L528.0,388.3L538.8,388.8L549.3,389.2L559.7,389.5L569.9,389.8L580.0,390.0L590.0,390.1L600.0,390.1L610.0,390.1L620.0,390.0L630.1,389.8L640.3,389.5L650.7,389.2L661.2,388.8L672.0,388.3L682.9,387.8L694.2,387.2L705.7,386.6L717.5,385.9L729.7,385.2L742.2,384.4L755.0,383.6L768.2,382.7L781.7,381.9L795.5,381.0L809.7,380.1L824.3,379.2L839.1,378.3L854.3,377.4L869.7,376.4L885.4,375.5L901.4,374.7L917.6,373.8L933.9,372.9L950.5,372.1L967.3,371.3L984.1,370.5L1001.1,369.8L1018.2,369.1L1035.3,368.4L1052.5,367.7L1069.8,367.1L1087.0,366.5L1104.2,366.0L1121.5,365.4L1138.6,365.0L1155.8,364.5L1172.8,364.1"/>
    <path d="M28.1,407.1L45.2,407.3L62.4,407.6L79.7,407.8L97.0,408.1L114.3,408.4L131.6,408.7L148.9,409.0L166.2,409.3L183.4,409.7L200.6,410.1L217.6,410.4L234.6,410.8L251.3,411.3L268.0,411.7L284.4,412.1L300.6,412.6L316.6,413.0L332.4,413.5L347.8,414.0L363.0,414.4L377.8,414.9L392.3,415.4L406.5,415.9L420.3,416.3L433.8,416.8L446.9,417.2L459.6,417.6L472.0,418.0L484.1,418.4L495.8,418.7L507.2,419.1L518.3,419.4L529.2,419.6L539.8,419.9L550.2,420.1L560.4,420.3L570.4,420.4L580.3,420.5L590.2,420.6L600.0,420.6L609.8,420.6L619.7,420.5L629.6,420.4L639.6,420.3L649.8,420.1L660.2,419.9L670.8,419.6L681.7,419.4L692.8,419.1L704.2,418.7L715.9,418.4L728.0,418.0L740.4,417.6L753.1,417.2L766.2,416.8L779.7,416.3L793.5,415.9L807.7,415.4L822.2,414.9L837.0,414.4L852.2,414.0L867.6,413.5L883.4,413.0L899.4,412.6L915.6,412.1L932.0,411.7L948.7,411.3L965.4,410.8L982.4,410.4L999.4,410.1L1016.6,409.7L1033.8,409.3L1051.1,409.0L1068.4,408.7L1085.7,408.4L1103.0,408.1L1120.3,407.8L1137.6,407.6L1154.8,407.3L1171.9,407.1"/>
    <path d="M28.4,450.0L45.6,450.0L62.8,450.0L80.1,450.0L97.4,450.0L114.7,450.0L132.1,450.0L149.4,450.0L166.7,450.0L184.0,450.0L201.1,450.0L218.2,450.0L235.2,450.0L252.0,450.0L268.6,450.0L285.1,450.0L301.3,450.0L317.3,450.0L333.1,450.0L348.5,450.0L363.7,450.0L378.5,450.0L393.0,450.0L407.2,450.0L421.0,450.0L434.4,450.0L447.5,450.0L460.3,450.0L472.6,450.0L484.6,450.0L496.3,450.0L507.7,450.0L518.8,450.0L529.6,450.0L540.1,450.0L550.4,450.0L560.6,450.0L570.6,450.0L580.4,450.0L590.2,450.0L600.0,450.0L609.8,450.0L619.6,450.0L629.4,450.0L639.4,450.0L649.6,450.0L659.9,450.0L670.4,450.0L681.2,450.0L692.3,450.0L703.7,450.0L715.4,450.0L727.4,450.0L739.7,450.0L752.5,450.0L765.6,450.0L779.0,450.0L792.8,450.0L807.0,450.0L821.5,450.0L836.3,450.0L851.5,450.0L866.9,450.0L882.7,450.0L898.7,450.0L914.9,450.0L931.4,450.0L948.0,450.0L964.8,450.0L981.8,450.0L998.9,450.0L1016.0,450.0L1033.3,450.0L1050.6,450.0L1067.9,450.0L1085.3,450.0L1102.6,450.0L1119.9,450.0L1137.2,450.0L1154.4,450.0L1171.6,450.0"/>
    <path d="M28.1,492.9L45.2,492.7L62.4,492.4L79.7,492.2L97.0,491.9L114.3,491.6L131.6,491.3L148.9,491.0L166.2,490.7L183.4,490.3L200.6,489.9L217.6,489.6L234.6,489.2L251.3,488.7L268.0,488.3L284.4,487.9L300.6,487.4L316.6,487.0L332.4,486.5L347.8,486.0L363.0,485.6L377.8,485.1L392.3,484.6L406.5,484.1L420.3,483.7L433.8,483.2L446.9,482.8L459.6,482.4L472.0,482.0L484.1,481.6L495.8,481.3L507.2,480.9L518.3,480.6L529.2,480.4L539.8,480.1L550.2,479.9L560.4,479.7L570.4,479.6L580.3,479.5L590.2,479.4L600.0,479.4L609.8,479.4L619.7,479.5L629.6,479.6L639.6,479.7L649.8,479.9L660.2,480.1L670.8,480.4L681.7,480.6L692.8,480.9L704.2,481.3L715.9,481.6L728.0,482.0L740.4,482.4L753.1,482.8L766.2,483.2L779.7,483.7L793.5,484.1L807.7,484.6L822.2,485.1L837.0,485.6L852.2,486.0L867.6,486.5L883.4,487.0L899.4,487.4L915.6,487.9L932.0,488.3L948.7,488.7L965.4,489.2L982.4,489.6L999.4,489.9L1016.6,490.3L1033.8,490.7L1051.1,491.0L1068.4,491.3L1085.7,491.6L1103.0,491.9L1120.3,492.2L1137.6,492.4L1154.8,492.7L1171.9,492.9"/>
    <path d="M27.2,535.9L44.2,535.5L61.4,535.0L78.5,534.6L95.8,534.0L113.0,533.5L130.2,532.9L147.5,532.3L164.7,531.6L181.8,530.9L198.9,530.2L215.9,529.5L232.7,528.7L249.5,527.9L266.1,527.1L282.4,526.2L298.6,525.3L314.6,524.5L330.3,523.6L345.7,522.6L360.9,521.7L375.7,520.8L390.3,519.9L404.5,519.0L418.3,518.1L431.8,517.3L445.0,516.4L457.8,515.6L470.3,514.8L482.5,514.1L494.3,513.4L505.8,512.8L517.1,512.2L528.0,511.7L538.8,511.2L549.3,510.8L559.7,510.5L569.9,510.2L580.0,510.0L590.0,509.9L600.0,509.9L610.0,509.9L620.0,510.0L630.1,510.2L640.3,510.5L650.7,510.8L661.2,511.2L672.0,511.7L682.9,512.2L694.2,512.8L705.7,513.4L717.5,514.1L729.7,514.8L742.2,515.6L755.0,516.4L768.2,517.3L781.7,518.1L795.5,519.0L809.7,519.9L824.3,520.8L839.1,521.7L854.3,522.6L869.7,523.6L885.4,524.5L901.4,525.3L917.6,526.2L933.9,527.1L950.5,527.9L967.3,528.7L984.1,529.5L1001.1,530.2L1018.2,530.9L1035.3,531.6L1052.5,532.3L1069.8,532.9L1087.0,533.5L1104.2,534.0L1121.5,534.6L1138.6,535.0L1155.8,535.5L1172.8,535.9"/>
    <path d="M25.7,579.2L42.6,578.6L59.7,578.0L76.7,577.3L93.8,576.5L110.9,575.8L128.0,574.9L145.1,574.1L162.2,573.1L179.2,572.2L196.2,571.1L213.1,570.1L229.9,569.0L246.5,567.8L263.0,566.7L279.3,565.5L295.4,564.2L311.3,563.0L327.0,561.7L342.4,560.4L357.6,559.1L372.4,557.8L387.0,556.5L401.2,555.2L415.1,554.0L428.7,552.8L442.0,551.6L454.9,550.4L467.6,549.3L479.9,548.3L491.9,547.3L503.6,546.4L515.0,545.6L526.2,544.8L537.2,544.2L548.0,543.6L558.6,543.1L569.1,542.8L579.4,542.5L589.7,542.4L600.0,542.3L610.3,542.4L620.6,542.5L630.9,542.8L641.4,543.1L652.0,543.6L662.8,544.2L673.8,544.8L685.0,545.6L696.4,546.4L708.1,547.3L720.1,548.3L732.4,549.3L745.1,550.4L758.0,551.6L771.3,552.8L784.9,554.0L798.8,555.2L813.0,556.5L827.6,557.8L842.4,559.1L857.6,560.4L873.0,561.7L888.7,563.0L904.6,564.2L920.7,565.5L937.0,566.7L953.5,567.8L970.1,569.0L986.9,570.1L1003.8,571.1L1020.8,572.2L1037.8,573.1L1054.9,574.1L1072.0,574.9L1089.1,575.8L1106.2,576.5L1123.3,577.3L1140.3,578.0L1157.4,578.6L1174.3,579.2"/>
    <path d="M23.7,622.9L40.5,622.1L57.4,621.3L74.3,620.5L91.2,619.6L108.2,618.6L125.1,617.6L142.1,616.5L159.0,615.4L175.9,614.2L192.7,612.9L209.4,611.6L226.1,610.3L242.6,608.8L259.0,607.4L275.2,605.9L291.2,604.4L307.1,602.8L322.7,601.3L338.1,599.7L353.2,598.1L368.1,596.5L382.6,594.9L396.9,593.3L410.9,591.8L424.7,590.3L438.1,588.8L451.2,587.4L464.0,586.0L476.5,584.8L488.7,583.6L500.7,582.4L512.4,581.4L523.9,580.5L535.2,579.7L546.3,579.0L557.2,578.4L568.0,578.0L578.7,577.6L589.4,577.4L600.0,577.4L610.6,577.4L621.3,577.6L632.0,578.0L642.8,578.4L653.7,579.0L664.8,579.7L676.1,580.5L687.6,581.4L699.3,582.4L711.3,583.6L723.5,584.8L736.0,586.0L748.8,587.4L761.9,588.8L775.3,590.3L789.1,591.8L803.1,593.3L817.4,594.9L831.9,596.5L846.8,598.1L861.9,599.7L877.3,601.3L892.9,602.8L908.8,604.4L924.8,605.9L941.0,607.4L957.4,608.8L973.9,610.3L990.6,611.6L1007.3,612.9L1024.1,614.2L1041.0,615.4L1057.9,616.5L1074.9,617.6L1091.8,618.6L1108.8,619.6L1125.7,620.5L1142.6,621.3L1159.5,622.1L1176.3,622.9"/>
    <path d="M21.5,667.0L38.1,666.1L54.8,665.2L71.5,664.3L88.2,663.2L105.0,662.1L121.8,661.0L138.5,659.8L155.3,658.5L172.0,657.1L188.6,655.7L205.2,654.2L221.6,652.7L238.0,651.1L254.3,649.5L270.4,647.8L286.3,646.1L302.1,644.3L317.6,642.5L333.0,640.7L348.1,638.9L363.0,637.1L377.6,635.4L391.9,633.6L406.0,631.8L419.9,630.1L433.4,628.5L446.7,626.9L459.7,625.3L472.5,623.9L485.0,622.5L497.2,621.3L509.3,620.1L521.1,619.1L532.7,618.2L544.2,617.4L555.5,616.7L566.8,616.2L577.9,615.9L589.0,615.6L600.0,615.6L611.0,615.6L622.1,615.9L633.2,616.2L644.5,616.7L655.8,617.4L667.3,618.2L678.9,619.1L690.7,620.1L702.8,621.3L715.0,622.5L727.5,623.9L740.3,625.3L753.3,626.9L766.6,628.5L780.1,630.1L794.0,631.8L808.1,633.6L822.4,635.4L837.0,637.1L851.9,638.9L867.0,640.7L882.4,642.5L897.9,644.3L913.7,646.1L929.6,647.8L945.7,649.5L962.0,651.1L978.4,652.7L994.8,654.2L1011.4,655.7L1028.0,657.1L1044.7,658.5L1061.5,659.8L1078.2,661.0L1095.0,662.1L1111.8,663.2L1128.5,664.3L1145.2,665.2L1161.9,666.1L1178.5,667.0"/>
    <path d="M19.0,711.5L35.4,710.6L51.9,709.6L68.4,708.6L84.9,707.5L101.5,706.4L118.1,705.1L134.6,703.8L151.2,702.5L167.7,701.0L184.1,699.5L200.5,698.0L216.8,696.3L233.0,694.7L249.1,692.9L265.1,691.1L280.9,689.3L296.6,687.5L312.1,685.6L327.4,683.7L342.5,681.8L357.4,679.9L372.0,678.0L386.5,676.1L400.7,674.2L414.6,672.4L428.4,670.7L441.9,669.0L455.1,667.4L468.1,665.8L480.9,664.4L493.5,663.0L505.9,661.8L518.1,660.7L530.1,659.7L542.0,658.9L553.7,658.2L565.4,657.7L577.0,657.3L588.5,657.0L600.0,657.0L611.5,657.0L623.0,657.3L634.6,657.7L646.3,658.2L658.0,658.9L669.9,659.7L681.9,660.7L694.1,661.8L706.5,663.0L719.1,664.4L731.9,665.8L744.9,667.4L758.1,669.0L771.6,670.7L785.4,672.4L799.3,674.2L813.5,676.1L828.0,678.0L842.6,679.9L857.5,681.8L872.6,683.7L887.9,685.6L903.4,687.5L919.1,689.3L934.9,691.1L950.9,692.9L967.0,694.7L983.2,696.3L999.5,698.0L1015.9,699.5L1032.3,701.0L1048.8,702.5L1065.4,703.8L1081.9,705.1L1098.5,706.4L1115.1,707.5L1131.6,708.6L1148.1,709.6L1164.6,710.6L1181.0,711.5"/>
    <path d="M16.4,756.4L32.6,755.5L48.9,754.6L65.2,753.5L81.6,752.4L97.9,751.3L114.2,750.0L130.6,748.7L146.9,747.3L163.2,745.9L179.5,744.4L195.7,742.8L211.8,741.2L227.8,739.5L243.8,737.7L259.6,735.9L275.3,734.1L290.9,732.2L306.3,730.3L321.6,728.4L336.7,726.5L351.6,724.5L366.3,722.6L380.8,720.7L395.1,718.9L409.3,717.0L423.1,715.3L436.8,713.6L450.3,711.9L463.6,710.4L476.7,708.9L489.6,707.6L502.3,706.4L514.9,705.2L527.4,704.3L539.7,703.4L551.9,702.7L564.0,702.2L576.0,701.8L588.0,701.6L600.0,701.5L612.0,701.6L624.0,701.8L636.0,702.2L648.1,702.7L660.3,703.4L672.6,704.3L685.1,705.2L697.7,706.4L710.4,707.6L723.3,708.9L736.4,710.4L749.7,711.9L763.2,713.6L776.9,715.3L790.7,717.0L804.9,718.9L819.2,720.7L833.7,722.6L848.4,724.5L863.3,726.5L878.4,728.4L893.7,730.3L909.1,732.2L924.7,734.1L940.4,735.9L956.2,737.7L972.2,739.5L988.2,741.2L1004.3,742.8L1020.5,744.4L1036.8,745.9L1053.1,747.3L1069.4,748.7L1085.8,750.0L1102.1,751.3L1118.4,752.4L1134.8,753.5L1151.1,754.6L1167.4,755.5L1183.6,756.4"/>
    <path d="M13.8,801.7L29.9,800.8L46.0,799.9L62.1,798.9L78.2,797.9L94.3,796.7L110.5,795.5L126.6,794.3L142.7,792.9L158.8,791.6L174.9,790.1L190.9,788.6L206.9,787.0L222.7,785.3L238.5,783.7L254.2,781.9L269.9,780.1L285.3,778.3L300.7,776.5L315.9,774.7L331.0,772.8L345.9,770.9L360.7,769.1L375.3,767.3L389.7,765.5L403.9,763.7L418.0,762.0L431.9,760.3L445.6,758.8L459.2,757.3L472.6,755.9L485.8,754.6L498.9,753.4L511.8,752.3L524.7,751.4L537.4,750.6L550.0,749.9L562.6,749.4L575.1,749.0L587.6,748.7L600.0,748.7L612.4,748.7L624.9,749.0L637.4,749.4L650.0,749.9L662.6,750.6L675.3,751.4L688.2,752.3L701.1,753.4L714.2,754.6L727.4,755.9L740.8,757.3L754.4,758.8L768.1,760.3L782.0,762.0L796.1,763.7L810.3,765.5L824.7,767.3L839.3,769.1L854.1,770.9L869.0,772.8L884.1,774.7L899.3,776.5L914.7,778.3L930.1,780.1L945.8,781.9L961.5,783.7L977.3,785.3L993.1,787.0L1009.1,788.6L1025.1,790.1L1041.2,791.6L1057.3,792.9L1073.4,794.3L1089.5,795.5L1105.7,796.7L1121.8,797.9L1137.9,798.9L1154.0,799.9L1170.1,800.8L1186.2,801.7"/>
    <path d="M11.4,847.3L27.3,846.5L43.2,845.6L59.1,844.7L75.0,843.7L91.0,842.7L106.9,841.6L122.9,840.4L138.8,839.2L154.7,837.9L170.6,836.5L186.4,835.1L202.2,833.6L217.9,832.1L233.6,830.5L249.2,828.9L264.7,827.3L280.1,825.6L295.4,823.9L310.5,822.2L325.6,820.4L340.5,818.7L355.3,817.0L370.0,815.3L384.5,813.6L398.9,812.0L413.1,810.4L427.2,808.9L441.2,807.4L455.0,806.0L468.6,804.7L482.2,803.5L495.6,802.4L508.9,801.4L522.1,800.5L535.2,799.8L548.3,799.1L561.3,798.7L574.2,798.3L587.1,798.1L600.0,798.0L612.9,798.1L625.8,798.3L638.7,798.7L651.7,799.1L664.8,799.8L677.9,800.5L691.1,801.4L704.4,802.4L717.8,803.5L731.4,804.7L745.0,806.0L758.8,807.4L772.8,808.9L786.9,810.4L801.1,812.0L815.5,813.6L830.0,815.3L844.7,817.0L859.5,818.7L874.4,820.4L889.5,822.2L904.6,823.9L919.9,825.6L935.3,827.3L950.8,828.9L966.4,830.5L982.1,832.1L997.8,833.6L1013.6,835.1L1029.4,836.5L1045.3,837.9L1061.2,839.2L1077.1,840.4L1093.1,841.6L1109.0,842.7L1125.0,843.7L1140.9,844.7L1156.8,845.6L1172.7,846.5L1188.6,847.3"/>
    <path d="M9.2,893.1L24.9,892.4L40.7,891.6L56.4,890.8L72.1,889.9L87.9,888.9L103.7,887.9L119.4,886.9L135.2,885.8L150.9,884.6L166.6,883.4L182.3,882.1L197.9,880.8L213.5,879.4L229.0,878.0L244.5,876.6L259.9,875.1L275.2,873.6L290.5,872.1L305.6,870.5L320.7,869.0L335.6,867.4L350.5,865.9L365.2,864.4L379.8,862.9L394.3,861.4L408.7,860.0L422.9,858.6L437.1,857.3L451.1,856.0L465.0,854.9L478.9,853.8L492.6,852.8L506.2,851.9L519.8,851.1L533.3,850.4L546.7,849.9L560.1,849.4L573.4,849.1L586.7,848.9L600.0,848.9L613.3,848.9L626.6,849.1L639.9,849.4L653.3,849.9L666.7,850.4L680.2,851.1L693.8,851.9L707.4,852.8L721.1,853.8L735.0,854.9L748.9,856.0L762.9,857.3L777.1,858.6L791.3,860.0L805.7,861.4L820.2,862.9L834.8,864.4L849.5,865.9L864.4,867.4L879.3,869.0L894.4,870.5L909.5,872.1L924.8,873.6L940.1,875.1L955.5,876.6L971.0,878.0L986.5,879.4L1002.1,880.8L1017.7,882.1L1033.4,883.4L1049.1,884.6L1064.8,885.8L1080.6,886.9L1096.3,887.9L1112.1,888.9L1127.9,889.9L1143.6,890.8L1159.3,891.6L1175.1,892.4L1190.8,893.1"/>
    <path d="M9.2,6.9L9.8,18.4L10.3,29.8L10.9,41.3L11.4,52.7L12.0,64.1L12.6,75.5L13.2,86.9L13.8,98.3L14.5,109.7L15.1,121.0L15.7,132.3L16.4,143.6L17.0,154.9L17.7,166.1L18.3,177.3L19.0,188.5L19.6,199.7L20.2,210.8L20.8,222.0L21.5,233.0L22.0,244.1L22.6,255.1L23.2,266.1L23.7,277.1L24.3,288.1L24.8,299.0L25.2,309.9L25.7,320.8L26.1,331.6L26.5,342.5L26.8,353.3L27.2,364.1L27.5,374.9L27.7,385.6L27.9,396.4L28.1,407.1L28.2,417.8L28.3,428.6L28.4,439.3L28.4,450.0L28.4,460.7L28.3,471.4L28.2,482.2L28.1,492.9L27.9,503.6L27.7,514.4L27.5,525.1L27.2,535.9L26.8,546.7L26.5,557.5L26.1,568.4L25.7,579.2L25.2,590.1L24.8,601.0L24.3,611.9L23.7,622.9L23.2,633.9L22.6,644.9L22.0,655.9L21.5,667.0L20.8,678.0L20.2,689.2L19.6,700.3L19.0,711.5L18.3,722.7L17.7,733.9L17.0,745.1L16.4,756.4L15.7,767.7L15.1,779.0L14.5,790.3L13.8,801.7L13.2,813.1L12.6,824.5L12.0,835.9L11.4,847.3L10.9,858.7L10.3,870.2L9.8,881.6L9.2,893.1"/>
    <path d="M56.4,9.2L57.0,20.8L57.7,32.3L58.4,43.8L59.1,55.3L59.8,66.8L60.6,78.2L61.3,89.7L62.1,101.1L62.9,112.5L63.6,123.8L64.4,135.2L65.2,146.5L66.0,157.8L66.8,169.0L67.6,180.2L68.4,191.4L69.2,202.5L70.0,213.6L70.7,224.7L71.5,235.7L72.2,246.7L72.9,257.7L73.6,268.6L74.3,279.5L75.0,290.4L75.6,301.2L76.2,312.0L76.7,322.7L77.2,333.4L77.7,344.1L78.1,354.8L78.5,365.4L78.9,376.1L79.2,386.7L79.5,397.2L79.7,407.8L79.9,418.4L80.0,428.9L80.1,439.5L80.1,450.0L80.1,460.5L80.0,471.1L79.9,481.6L79.7,492.2L79.5,502.8L79.2,513.3L78.9,523.9L78.5,534.6L78.1,545.2L77.7,555.9L77.2,566.6L76.7,577.3L76.2,588.0L75.6,598.8L75.0,609.6L74.3,620.5L73.6,631.4L72.9,642.3L72.2,653.3L71.5,664.3L70.7,675.3L70.0,686.4L69.2,697.5L68.4,708.6L67.6,719.8L66.8,731.0L66.0,742.2L65.2,753.5L64.4,764.8L63.6,776.2L62.9,787.5L62.1,798.9L61.3,810.3L60.6,821.8L59.8,833.2L59.1,844.7L58.4,856.2L57.7,867.7L57.0,879.2L56.4,890.8"/>
    <path d="M103.7,12.1L104.4,23.7L105.2,35.3L106.1,46.9L106.9,58.4L107.8,70.0L108.7,81.5L109.6,93.0L110.5,104.5L111.4,115.9L112.3,127.3L113.3,138.7L114.2,150.0L115.2,161.3L116.2,172.5L117.1,183.7L118.1,194.9L119.0,206.0L119.9,217.0L120.9,228.0L121.8,239.0L122.6,249.9L123.5,260.8L124.3,271.6L125.1,282.4L125.9,293.1L126.7,303.8L127.4,314.5L128.0,325.1L128.6,335.6L129.2,346.2L129.8,356.6L130.2,367.1L130.7,377.5L131.0,387.9L131.3,398.3L131.6,408.7L131.8,419.0L132.0,429.4L132.1,439.7L132.1,450.0L132.1,460.3L132.0,470.6L131.8,481.0L131.6,491.3L131.3,501.7L131.0,512.1L130.7,522.5L130.2,532.9L129.8,543.4L129.2,553.8L128.6,564.4L128.0,574.9L127.4,585.5L126.7,596.2L125.9,606.9L125.1,617.6L124.3,628.4L123.5,639.2L122.6,650.1L121.8,661.0L120.9,672.0L119.9,683.0L119.0,694.0L118.1,705.1L117.1,716.3L116.2,727.5L115.2,738.7L114.2,750.0L113.3,761.3L112.3,772.7L111.4,784.1L110.5,795.5L109.6,807.0L108.7,818.5L107.8,830.0L106.9,841.6L106.1,853.1L105.2,864.7L104.4,876.3L103.7,887.9"/>
    <path d="M150.9,15.4L151.8,27.1L152.7,38.8L153.7,50.5L154.7,62.1L155.7,73.8L156.7,85.4L157.8,96.9L158.8,108.4L159.9,119.9L161.0,131.4L162.1,142.8L163.2,154.1L164.3,165.4L165.4,176.6L166.5,187.8L167.7,199.0L168.8,210.0L169.8,221.0L170.9,232.0L172.0,242.9L173.0,253.7L174.0,264.5L175.0,275.2L175.9,285.8L176.8,296.4L177.7,306.9L178.5,317.4L179.2,327.8L180.0,338.2L180.6,348.5L181.2,358.8L181.8,369.1L182.3,379.3L182.7,389.4L183.1,399.6L183.4,409.7L183.6,419.8L183.8,429.9L183.9,439.9L184.0,450.0L183.9,460.1L183.8,470.1L183.6,480.2L183.4,490.3L183.1,500.4L182.7,510.6L182.3,520.7L181.8,530.9L181.2,541.2L180.6,551.5L180.0,561.8L179.2,572.2L178.5,582.6L177.7,593.1L176.8,603.6L175.9,614.2L175.0,624.8L174.0,635.5L173.0,646.3L172.0,657.1L170.9,668.0L169.8,679.0L168.8,690.0L167.7,701.0L166.5,712.2L165.4,723.4L164.3,734.6L163.2,745.9L162.1,757.2L161.0,768.6L159.9,780.1L158.8,791.6L157.8,803.1L156.7,814.6L155.7,826.2L154.7,837.9L153.7,849.5L152.7,861.2L151.8,872.9L150.9,884.6"/>
    <path d="M197.9,19.2L198.9,31.0L200.0,42.8L201.1,54.6L202.2,66.4L203.3,78.1L204.5,89.8L205.7,101.4L206.9,113.0L208.1,124.6L209.3,136.0L210.5,147.5L211.8,158.8L213.0,170.1L214.3,181.4L215.6,192.6L216.8,203.7L218.0,214.7L219.3,225.6L220.5,236.5L221.6,247.3L222.8,258.0L223.9,268.7L225.0,279.3L226.1,289.7L227.1,300.2L228.1,310.5L229.0,320.8L229.9,331.0L230.7,341.2L231.4,351.3L232.1,361.3L232.7,371.3L233.3,381.2L233.8,391.1L234.2,401.0L234.6,410.8L234.8,420.7L235.0,430.4L235.1,440.2L235.2,450.0L235.1,459.8L235.0,469.6L234.8,479.3L234.6,489.2L234.2,499.0L233.8,508.9L233.3,518.8L232.7,528.7L232.1,538.7L231.4,548.7L230.7,558.8L229.9,569.0L229.0,579.2L228.1,589.5L227.1,599.8L226.1,610.3L225.0,620.7L223.9,631.3L222.8,642.0L221.6,652.7L220.5,663.5L219.3,674.4L218.0,685.3L216.8,696.3L215.6,707.4L214.3,718.6L213.0,729.9L211.8,741.2L210.5,752.5L209.3,764.0L208.1,775.4L206.9,787.0L205.7,798.6L204.5,810.2L203.3,821.9L202.2,833.6L201.1,845.4L200.0,857.2L198.9,869.0L197.9,880.8"/>
    <path d="M244.5,23.4L245.6,35.4L246.8,47.3L247.9,59.2L249.2,71.1L250.4,82.9L251.7,94.7L252.9,106.4L254.2,118.1L255.6,129.7L256.9,141.2L258.3,152.7L259.6,164.1L261.0,175.4L262.4,186.6L263.7,197.8L265.1,208.9L266.4,219.8L267.8,230.7L269.1,241.5L270.4,252.2L271.6,262.8L272.8,273.3L274.0,283.8L275.2,294.1L276.3,304.3L277.4,314.5L278.4,324.6L279.3,334.5L280.2,344.5L281.0,354.3L281.8,364.1L282.4,373.8L283.1,383.4L283.6,393.0L284.0,402.6L284.4,412.1L284.7,421.6L284.9,431.1L285.0,440.6L285.1,450.0L285.0,459.4L284.9,468.9L284.7,478.4L284.4,487.9L284.0,497.4L283.6,507.0L283.1,516.6L282.4,526.2L281.8,535.9L281.0,545.7L280.2,555.5L279.3,565.5L278.4,575.4L277.4,585.5L276.3,595.7L275.2,605.9L274.0,616.2L272.8,626.7L271.6,637.2L270.4,647.8L269.1,658.5L267.8,669.3L266.4,680.2L265.1,691.1L263.7,702.2L262.4,713.4L261.0,724.6L259.6,735.9L258.3,747.3L256.9,758.8L255.6,770.3L254.2,781.9L252.9,793.6L251.7,805.3L250.4,817.1L249.2,828.9L247.9,840.8L246.8,852.7L245.6,864.6L244.5,876.6"/>
    <path d="M290.5,27.9L291.6,40.0L292.9,52.1L294.1,64.1L295.4,76.1L296.7,88.1L298.0,99.9L299.3,111.7L300.7,123.5L302.1,135.2L303.5,146.8L304.9,158.3L306.3,169.7L307.8,181.0L309.2,192.3L310.6,203.4L312.1,214.4L313.5,225.3L314.9,236.2L316.3,246.9L317.6,257.5L318.9,267.9L320.2,278.3L321.5,288.6L322.7,298.7L323.8,308.8L325.0,318.7L326.0,328.6L327.0,338.3L327.9,348.0L328.8,357.5L329.6,367.0L330.3,376.4L330.9,385.8L331.5,395.1L332.0,404.3L332.4,413.5L332.7,422.7L332.9,431.8L333.0,440.9L333.1,450.0L333.0,459.1L332.9,468.2L332.7,477.3L332.4,486.5L332.0,495.7L331.5,504.9L330.9,514.2L330.3,523.6L329.6,533.0L328.8,542.5L327.9,552.0L327.0,561.7L326.0,571.4L325.0,581.3L323.8,591.2L322.7,601.3L321.5,611.4L320.2,621.7L318.9,632.1L317.6,642.5L316.3,653.1L314.9,663.8L313.5,674.7L312.1,685.6L310.6,696.6L309.2,707.7L307.8,719.0L306.3,730.3L304.9,741.7L303.5,753.2L302.1,764.8L300.7,776.5L299.3,788.3L298.0,800.1L296.7,811.9L295.4,823.9L294.1,835.9L292.9,847.9L291.6,860.0L290.5,872.1"/>
    <path d="M335.6,32.6L336.8,44.8L338.0,57.0L339.3,69.2L340.5,81.3L341.8,93.3L343.2,105.3L344.5,117.2L345.9,129.1L347.3,140.8L348.7,152.5L350.2,164.0L351.6,175.5L353.0,186.8L354.5,198.0L355.9,209.1L357.4,220.1L358.8,231.0L360.2,241.8L361.6,252.4L363.0,262.9L364.3,273.2L365.6,283.4L366.8,293.5L368.1,303.5L369.2,313.4L370.3,323.1L371.4,332.7L372.4,342.2L373.3,351.6L374.2,360.9L375.0,370.1L375.7,379.2L376.4,388.2L376.9,397.2L377.4,406.1L377.8,414.9L378.1,423.7L378.3,432.5L378.5,441.3L378.5,450.0L378.5,458.7L378.3,467.5L378.1,476.3L377.8,485.1L377.4,493.9L376.9,502.8L376.4,511.8L375.7,520.8L375.0,529.9L374.2,539.1L373.3,548.4L372.4,557.8L371.4,567.3L370.3,576.9L369.2,586.6L368.1,596.5L366.8,606.5L365.6,616.6L364.3,626.8L363.0,637.1L361.6,647.6L360.2,658.2L358.8,669.0L357.4,679.9L355.9,690.9L354.5,702.0L353.0,713.2L351.6,724.5L350.2,736.0L348.7,747.5L347.3,759.2L345.9,770.9L344.5,782.8L343.2,794.7L341.8,806.7L340.5,818.7L339.3,830.8L338.0,843.0L336.8,855.2L335.6,867.4"/>
    <path d="M379.8,37.1L380.9,49.5L382.1,61.9L383.3,74.2L384.5,86.4L385.8,98.5L387.1,110.6L388.4,122.6L389.7,134.5L391.0,146.3L392.4,158.1L393.8,169.7L395.1,181.1L396.5,192.5L397.9,203.7L399.3,214.8L400.7,225.8L402.1,236.6L403.4,247.3L404.7,257.8L406.0,268.2L407.3,278.4L408.6,288.5L409.8,298.4L410.9,308.2L412.1,317.9L413.1,327.4L414.2,336.8L415.1,346.0L416.0,355.1L416.9,364.2L417.6,373.1L418.3,381.9L418.9,390.6L419.5,399.2L419.9,407.8L420.3,416.3L420.6,424.8L420.8,433.2L421.0,441.6L421.0,450.0L421.0,458.4L420.8,466.8L420.6,475.2L420.3,483.7L419.9,492.2L419.5,500.8L418.9,509.4L418.3,518.1L417.6,526.9L416.9,535.8L416.0,544.9L415.1,554.0L414.2,563.2L413.1,572.6L412.1,582.1L410.9,591.8L409.8,601.6L408.6,611.5L407.3,621.6L406.0,631.8L404.7,642.2L403.4,652.7L402.1,663.4L400.7,674.2L399.3,685.2L397.9,696.3L396.5,707.5L395.1,718.9L393.8,730.3L392.4,741.9L391.0,753.7L389.7,765.5L388.4,777.4L387.1,789.4L385.8,801.5L384.5,813.6L383.3,825.8L382.1,838.1L380.9,850.5L379.8,862.9"/>
    <path d="M422.9,41.4L424.0,53.9L425.0,66.4L426.1,78.8L427.2,91.1L428.4,103.4L429.5,115.6L430.7,127.7L431.9,139.7L433.1,151.5L434.3,163.3L435.6,174.9L436.8,186.4L438.1,197.8L439.4,209.0L440.6,220.1L441.9,231.0L443.1,241.8L444.3,252.4L445.5,262.8L446.7,273.1L447.9,283.2L449.0,293.2L450.1,303.0L451.2,312.6L452.2,322.1L453.1,331.4L454.1,340.5L454.9,349.6L455.7,358.5L456.5,367.2L457.2,375.9L457.8,384.4L458.4,392.8L458.9,401.1L459.3,409.4L459.6,417.6L459.9,425.8L460.1,433.9L460.2,441.9L460.3,450.0L460.2,458.1L460.1,466.1L459.9,474.2L459.6,482.4L459.3,490.6L458.9,498.9L458.4,507.2L457.8,515.6L457.2,524.1L456.5,532.8L455.7,541.5L454.9,550.4L454.1,559.5L453.1,568.6L452.2,577.9L451.2,587.4L450.1,597.0L449.0,606.8L447.9,616.8L446.7,626.9L445.5,637.2L444.3,647.6L443.1,658.2L441.9,669.0L440.6,679.9L439.4,691.0L438.1,702.2L436.8,713.6L435.6,725.1L434.3,736.7L433.1,748.5L431.9,760.3L430.7,772.3L429.5,784.4L428.4,796.6L427.2,808.9L426.1,821.2L425.0,833.6L424.0,846.1L422.9,858.6"/>
    <path d="M465.0,45.1L465.9,57.8L466.8,70.3L467.7,82.9L468.6,95.3L469.6,107.6L470.6,119.9L471.5,132.1L472.6,144.1L473.6,156.1L474.6,167.9L475.6,179.5L476.7,191.1L477.7,202.4L478.8,213.7L479.9,224.7L480.9,235.6L481.9,246.3L483.0,256.9L484.0,267.3L485.0,277.5L485.9,287.5L486.9,297.3L487.8,307.0L488.7,316.4L489.6,325.7L490.4,334.9L491.1,343.9L491.9,352.7L492.6,361.4L493.2,369.9L493.8,378.3L494.3,386.6L494.8,394.8L495.2,402.8L495.5,410.8L495.8,418.7L496.0,426.6L496.2,434.4L496.3,442.2L496.3,450.0L496.3,457.8L496.2,465.6L496.0,473.4L495.8,481.3L495.5,489.2L495.2,497.2L494.8,505.2L494.3,513.4L493.8,521.7L493.2,530.1L492.6,538.6L491.9,547.3L491.1,556.1L490.4,565.1L489.6,574.3L488.7,583.6L487.8,593.0L486.9,602.7L485.9,612.5L485.0,622.5L484.0,632.7L483.0,643.1L481.9,653.7L480.9,664.4L479.9,675.3L478.8,686.3L477.7,697.6L476.7,708.9L475.6,720.5L474.6,732.1L473.6,743.9L472.6,755.9L471.5,767.9L470.6,780.1L469.6,792.4L468.6,804.7L467.7,817.1L466.8,829.7L465.9,842.2L465.0,854.9"/>
    <path d="M506.2,48.1L506.9,60.8L507.5,73.5L508.2,86.1L508.9,98.6L509.6,111.0L510.3,123.4L511.1,135.6L511.8,147.7L512.6,159.7L513.4,171.5L514.1,183.2L514.9,194.8L515.7,206.1L516.5,217.4L517.3,228.4L518.1,239.3L518.8,250.0L519.6,260.5L520.4,270.8L521.1,280.9L521.8,290.8L522.5,300.6L523.2,310.1L523.9,319.5L524.5,328.7L525.1,337.7L525.7,346.5L526.2,355.2L526.7,363.7L527.2,372.0L527.7,380.2L528.0,388.3L528.4,396.3L528.7,404.2L529.0,411.9L529.2,419.6L529.3,427.3L529.5,434.9L529.5,442.5L529.6,450.0L529.5,457.5L529.5,465.1L529.3,472.7L529.2,480.4L529.0,488.1L528.7,495.8L528.4,503.7L528.0,511.7L527.7,519.8L527.2,528.0L526.7,536.3L526.2,544.8L525.7,553.5L525.1,562.3L524.5,571.3L523.9,580.5L523.2,589.9L522.5,599.4L521.8,609.2L521.1,619.1L520.4,629.2L519.6,639.5L518.8,650.0L518.1,660.7L517.3,671.6L516.5,682.6L515.7,693.9L514.9,705.2L514.1,716.8L513.4,728.5L512.6,740.3L511.8,752.3L511.1,764.4L510.3,776.6L509.6,789.0L508.9,801.4L508.2,813.9L507.5,826.5L506.9,839.2L506.2,851.9"/>
    <path d="M546.7,50.1L547.1,62.9L547.5,75.6L547.9,88.3L548.3,100.9L548.7,113.3L549.1,125.7L549.6,138.0L550.0,150.1L550.5,162.1L550.9,174.0L551.4,185.7L551.9,197.3L552.3,208.7L552.8,219.9L553.3,230.9L553.7,241.8L554.2,252.4L554.6,262.9L555.1,273.2L555.5,283.3L556.0,293.1L556.4,302.8L556.8,312.3L557.2,321.6L557.6,330.7L557.9,339.6L558.3,348.3L558.6,356.9L558.9,365.2L559.2,373.5L559.4,381.6L559.7,389.5L559.9,397.4L560.1,405.1L560.2,412.7L560.4,420.3L560.5,427.8L560.5,435.2L560.6,442.6L560.6,450.0L560.6,457.4L560.5,464.8L560.5,472.2L560.4,479.7L560.2,487.3L560.1,494.9L559.9,502.6L559.7,510.5L559.4,518.4L559.2,526.5L558.9,534.8L558.6,543.1L558.3,551.7L557.9,560.4L557.6,569.3L557.2,578.4L556.8,587.7L556.4,597.2L556.0,606.9L555.5,616.7L555.1,626.8L554.6,637.1L554.2,647.6L553.7,658.2L553.3,669.1L552.8,680.1L552.3,691.3L551.9,702.7L551.4,714.3L550.9,726.0L550.5,737.9L550.0,749.9L549.6,762.0L549.1,774.3L548.7,786.7L548.3,799.1L547.9,811.7L547.5,824.4L547.1,837.1L546.7,849.9"/>
    <path d="M586.7,51.1L586.8,63.9L586.9,76.6L587.0,89.3L587.1,101.9L587.2,114.4L587.3,126.8L587.4,139.1L587.6,151.3L587.7,163.3L587.8,175.2L587.9,186.9L588.0,198.4L588.1,209.8L588.3,221.1L588.4,232.1L588.5,243.0L588.6,253.6L588.7,264.1L588.8,274.3L589.0,284.4L589.1,294.2L589.2,303.9L589.3,313.3L589.4,322.6L589.5,331.6L589.6,340.5L589.7,349.1L589.7,357.6L589.8,366.0L589.9,374.2L590.0,382.2L590.0,390.1L590.1,397.8L590.1,405.5L590.2,413.1L590.2,420.6L590.2,428.0L590.2,435.3L590.2,442.7L590.2,450.0L590.2,457.3L590.2,464.7L590.2,472.0L590.2,479.4L590.2,486.9L590.1,494.5L590.1,502.2L590.0,509.9L590.0,517.8L589.9,525.8L589.8,534.0L589.7,542.4L589.7,550.9L589.6,559.5L589.5,568.4L589.4,577.4L589.3,586.7L589.2,596.1L589.1,605.8L589.0,615.6L588.8,625.7L588.7,635.9L588.6,646.4L588.5,657.0L588.4,667.9L588.3,678.9L588.1,690.2L588.0,701.6L587.9,713.1L587.8,724.8L587.7,736.7L587.6,748.7L587.4,760.9L587.3,773.2L587.2,785.6L587.1,798.1L587.0,810.7L586.9,823.4L586.8,836.1L586.7,848.9"/>
    <path d="M626.6,50.9L626.4,63.7L626.2,76.4L626.0,89.1L625.8,101.7L625.6,114.2L625.4,126.6L625.1,138.9L624.9,151.0L624.7,163.0L624.5,174.9L624.2,186.6L624.0,198.2L623.7,209.6L623.5,220.8L623.3,231.9L623.0,242.7L622.8,253.4L622.6,263.8L622.3,274.1L622.1,284.1L621.9,294.0L621.7,303.7L621.5,313.1L621.3,322.4L621.1,331.4L620.9,340.3L620.7,349.0L620.6,357.5L620.4,365.8L620.3,374.0L620.1,382.1L620.0,390.0L619.9,397.7L619.8,405.4L619.7,413.0L619.7,420.5L619.6,427.9L619.6,435.3L619.6,442.7L619.6,450.0L619.6,457.3L619.6,464.7L619.6,472.1L619.7,479.5L619.7,487.0L619.8,494.6L619.9,502.3L620.0,510.0L620.1,517.9L620.3,526.0L620.4,534.2L620.6,542.5L620.7,551.0L620.9,559.7L621.1,568.6L621.3,577.6L621.5,586.9L621.7,596.3L621.9,606.0L622.1,615.9L622.3,625.9L622.6,636.2L622.8,646.6L623.0,657.3L623.3,668.1L623.5,679.2L623.7,690.4L624.0,701.8L624.2,713.4L624.5,725.1L624.7,737.0L624.9,749.0L625.1,761.1L625.4,773.4L625.6,785.8L625.8,798.3L626.0,810.9L626.2,823.6L626.4,836.3L626.6,849.1"/>
    <path d="M666.7,49.6L666.3,62.3L665.8,75.0L665.3,87.7L664.8,100.2L664.2,112.7L663.7,125.1L663.2,137.3L662.6,149.4L662.1,161.4L661.5,173.3L660.9,185.0L660.3,196.6L659.8,208.0L659.2,219.2L658.6,230.2L658.0,241.1L657.5,251.8L656.9,262.2L656.3,272.5L655.8,282.6L655.3,292.5L654.7,302.2L654.2,311.7L653.7,321.0L653.3,330.1L652.8,339.1L652.4,347.8L652.0,356.4L651.6,364.8L651.3,373.1L651.0,381.2L650.7,389.2L650.4,397.1L650.2,404.8L650.0,412.5L649.8,420.1L649.7,427.6L649.6,435.1L649.6,442.6L649.6,450.0L649.6,457.4L649.6,464.9L649.7,472.4L649.8,479.9L650.0,487.5L650.2,495.2L650.4,502.9L650.7,510.8L651.0,518.8L651.3,526.9L651.6,535.2L652.0,543.6L652.4,552.2L652.8,560.9L653.3,569.9L653.7,579.0L654.2,588.3L654.7,597.8L655.3,607.5L655.8,617.4L656.3,627.5L656.9,637.8L657.5,648.2L658.0,658.9L658.6,669.8L659.2,680.8L659.8,692.0L660.3,703.4L660.9,715.0L661.5,726.7L662.1,738.6L662.6,750.6L663.2,762.7L663.7,774.9L664.2,787.3L664.8,799.8L665.3,812.3L665.8,825.0L666.3,837.7L666.7,850.4"/>
    <path d="M707.4,47.2L706.7,59.9L706.0,72.5L705.2,85.1L704.4,97.6L703.6,110.0L702.8,122.3L702.0,134.5L701.1,146.6L700.3,158.6L699.4,170.4L698.5,182.1L697.7,193.6L696.8,205.0L695.9,216.3L695.0,227.3L694.1,238.2L693.3,248.9L692.4,259.4L691.6,269.7L690.7,279.9L689.9,289.8L689.1,299.6L688.4,309.2L687.6,318.6L686.9,327.8L686.2,336.8L685.6,345.7L685.0,354.4L684.4,363.0L683.9,371.4L683.4,379.7L682.9,387.8L682.5,395.8L682.2,403.8L681.9,411.6L681.7,419.4L681.5,427.1L681.3,434.7L681.3,442.4L681.2,450.0L681.3,457.6L681.3,465.3L681.5,472.9L681.7,480.6L681.9,488.4L682.2,496.2L682.5,504.2L682.9,512.2L683.4,520.3L683.9,528.6L684.4,537.0L685.0,545.6L685.6,554.3L686.2,563.2L686.9,572.2L687.6,581.4L688.4,590.8L689.1,600.4L689.9,610.2L690.7,620.1L691.6,630.3L692.4,640.6L693.3,651.1L694.1,661.8L695.0,672.7L695.9,683.7L696.8,695.0L697.7,706.4L698.5,717.9L699.4,729.6L700.3,741.4L701.1,753.4L702.0,765.5L702.8,777.7L703.6,790.0L704.4,802.4L705.2,814.9L706.0,827.5L706.7,840.1L707.4,852.8"/>
    <path d="M748.9,44.0L748.0,56.6L747.0,69.1L746.0,81.6L745.0,94.0L744.0,106.3L743.0,118.6L741.9,130.7L740.8,142.7L739.7,154.6L738.6,166.4L737.5,178.1L736.4,189.6L735.3,201.0L734.1,212.2L733.0,223.3L731.9,234.2L730.8,244.9L729.7,255.5L728.6,265.9L727.5,276.1L726.5,286.1L725.5,296.0L724.5,305.7L723.5,315.2L722.6,324.6L721.7,333.8L720.9,342.8L720.1,351.7L719.4,360.4L718.7,369.0L718.1,377.5L717.5,385.9L717.0,394.1L716.6,402.3L716.2,410.4L715.9,418.4L715.7,426.3L715.5,434.3L715.4,442.1L715.4,450.0L715.4,457.9L715.5,465.7L715.7,473.7L715.9,481.6L716.2,489.6L716.6,497.7L717.0,505.9L717.5,514.1L718.1,522.5L718.7,531.0L719.4,539.6L720.1,548.3L720.9,557.2L721.7,566.2L722.6,575.4L723.5,584.8L724.5,594.3L725.5,604.0L726.5,613.9L727.5,623.9L728.6,634.1L729.7,644.5L730.8,655.1L731.9,665.8L733.0,676.7L734.1,687.8L735.3,699.0L736.4,710.4L737.5,721.9L738.6,733.6L739.7,745.4L740.8,757.3L741.9,769.3L743.0,781.4L744.0,793.7L745.0,806.0L746.0,818.4L747.0,830.9L748.0,843.4L748.9,856.0"/>
    <path d="M791.3,40.0L790.3,52.5L789.2,64.9L788.0,77.3L786.9,89.6L785.7,101.8L784.5,114.0L783.2,126.0L782.0,138.0L780.7,149.9L779.4,161.6L778.2,173.2L776.9,184.7L775.5,196.1L774.2,207.3L772.9,218.4L771.6,229.3L770.3,240.1L769.1,250.7L767.8,261.2L766.6,271.5L765.4,281.7L764.2,291.7L763.1,301.5L761.9,311.2L760.9,320.7L759.9,330.1L758.9,339.3L758.0,348.4L757.2,357.4L756.4,366.2L755.7,375.0L755.0,383.6L754.4,392.1L753.9,400.5L753.5,408.9L753.1,417.2L752.8,425.4L752.6,433.6L752.5,441.8L752.5,450.0L752.5,458.2L752.6,466.4L752.8,474.6L753.1,482.8L753.5,491.1L753.9,499.5L754.4,507.9L755.0,516.4L755.7,525.0L756.4,533.8L757.2,542.6L758.0,551.6L758.9,560.7L759.9,569.9L760.9,579.3L761.9,588.8L763.1,598.5L764.2,608.3L765.4,618.3L766.6,628.5L767.8,638.8L769.1,649.3L770.3,659.9L771.6,670.7L772.9,681.6L774.2,692.7L775.5,703.9L776.9,715.3L778.2,726.8L779.4,738.4L780.7,750.1L782.0,762.0L783.2,774.0L784.5,786.0L785.7,798.2L786.9,810.4L788.0,822.7L789.2,835.1L790.3,847.5L791.3,860.0"/>
    <path d="M834.8,35.6L833.7,48.0L832.5,60.3L831.2,72.5L830.0,84.7L828.7,96.8L827.4,108.9L826.1,120.9L824.7,132.7L823.4,144.5L822.0,156.2L820.6,167.8L819.2,179.3L817.8,190.6L816.3,201.8L814.9,212.9L813.5,223.9L812.1,234.8L810.7,245.4L809.4,256.0L808.1,266.4L806.8,276.7L805.5,286.8L804.2,296.8L803.1,306.7L801.9,316.4L800.8,326.0L799.8,335.4L798.8,344.8L797.9,354.0L797.0,363.1L796.3,372.1L795.5,381.0L794.9,389.8L794.4,398.6L793.9,407.2L793.5,415.9L793.2,424.4L793.0,433.0L792.9,441.5L792.8,450.0L792.9,458.5L793.0,467.0L793.2,475.6L793.5,484.1L793.9,492.8L794.4,501.4L794.9,510.2L795.5,519.0L796.3,527.9L797.0,536.9L797.9,546.0L798.8,555.2L799.8,564.6L800.8,574.0L801.9,583.6L803.1,593.3L804.2,603.2L805.5,613.2L806.8,623.3L808.1,633.6L809.4,644.0L810.7,654.6L812.1,665.2L813.5,676.1L814.9,687.1L816.3,698.2L817.8,709.4L819.2,720.7L820.6,732.2L822.0,743.8L823.4,755.5L824.7,767.3L826.1,779.1L827.4,791.1L828.7,803.2L830.0,815.3L831.2,827.5L832.5,839.7L833.7,852.0L834.8,864.4"/>
    <path d="M879.3,31.0L878.1,43.2L876.9,55.4L875.7,67.5L874.4,79.6L873.1,91.6L871.7,103.5L870.4,115.4L869.0,127.2L867.6,138.9L866.2,150.6L864.7,162.1L863.3,173.5L861.9,184.9L860.4,196.1L859.0,207.2L857.5,218.2L856.1,229.1L854.7,239.9L853.3,250.5L851.9,261.1L850.6,271.5L849.3,281.7L848.0,291.9L846.8,301.9L845.6,311.8L844.5,321.6L843.4,331.3L842.4,340.9L841.5,350.4L840.6,359.8L839.8,369.1L839.1,378.3L838.5,387.4L837.9,396.5L837.4,405.5L837.0,414.4L836.7,423.4L836.5,432.3L836.4,441.1L836.3,450.0L836.4,458.9L836.5,467.7L836.7,476.6L837.0,485.6L837.4,494.5L837.9,503.5L838.5,512.6L839.1,521.7L839.8,530.9L840.6,540.2L841.5,549.6L842.4,559.1L843.4,568.7L844.5,578.4L845.6,588.2L846.8,598.1L848.0,608.1L849.3,618.3L850.6,628.5L851.9,638.9L853.3,649.5L854.7,660.1L856.1,670.9L857.5,681.8L859.0,692.8L860.4,703.9L861.9,715.1L863.3,726.5L864.7,737.9L866.2,749.4L867.6,761.1L869.0,772.8L870.4,784.6L871.7,796.5L873.1,808.4L874.4,820.4L875.7,832.5L876.9,844.6L878.1,856.8L879.3,869.0"/>
    <path d="M924.8,26.4L923.6,38.5L922.4,50.5L921.2,62.5L919.9,74.4L918.7,86.3L917.3,98.2L916.0,109.9L914.7,121.7L913.3,133.3L911.9,144.9L910.5,156.4L909.1,167.8L907.7,179.1L906.2,190.4L904.8,201.5L903.4,212.5L902.0,223.5L900.6,234.3L899.3,245.1L897.9,255.7L896.6,266.2L895.4,276.6L894.1,286.9L892.9,297.2L891.8,307.3L890.7,317.3L889.7,327.2L888.7,337.0L887.8,346.8L886.9,356.4L886.1,366.0L885.4,375.5L884.8,385.0L884.2,394.4L883.8,403.7L883.4,413.0L883.1,422.3L882.8,431.6L882.7,440.8L882.7,450.0L882.7,459.2L882.8,468.4L883.1,477.7L883.4,487.0L883.8,496.3L884.2,505.6L884.8,515.0L885.4,524.5L886.1,534.0L886.9,543.6L887.8,553.2L888.7,563.0L889.7,572.8L890.7,582.7L891.8,592.7L892.9,602.8L894.1,613.1L895.4,623.4L896.6,633.8L897.9,644.3L899.3,654.9L900.6,665.7L902.0,676.5L903.4,687.5L904.8,698.5L906.2,709.6L907.7,720.9L909.1,732.2L910.5,743.6L911.9,755.1L913.3,766.7L914.7,778.3L916.0,790.1L917.3,801.8L918.7,813.7L919.9,825.6L921.2,837.5L922.4,849.5L923.6,861.5L924.8,873.6"/>
    <path d="M971.0,22.0L969.9,33.9L968.8,45.8L967.6,57.7L966.4,69.5L965.2,81.3L964.0,93.0L962.7,104.7L961.5,116.3L960.2,127.9L958.9,139.4L957.5,150.9L956.2,162.3L954.9,173.6L953.5,184.8L952.2,196.0L950.9,207.1L949.6,218.1L948.3,229.0L947.0,239.8L945.7,250.5L944.5,261.2L943.3,271.7L942.1,282.2L941.0,292.6L939.9,302.9L938.9,313.1L937.9,323.3L937.0,333.3L936.1,343.3L935.3,353.3L934.6,363.1L933.9,372.9L933.4,382.7L932.8,392.4L932.4,402.1L932.0,411.7L931.7,421.3L931.5,430.9L931.4,440.4L931.4,450.0L931.4,459.6L931.5,469.1L931.7,478.7L932.0,488.3L932.4,497.9L932.8,507.6L933.4,517.3L933.9,527.1L934.6,536.9L935.3,546.7L936.1,556.7L937.0,566.7L937.9,576.7L938.9,586.9L939.9,597.1L941.0,607.4L942.1,617.8L943.3,628.3L944.5,638.8L945.7,649.5L947.0,660.2L948.3,671.0L949.6,681.9L950.9,692.9L952.2,704.0L953.5,715.2L954.9,726.4L956.2,737.7L957.5,749.1L958.9,760.6L960.2,772.1L961.5,783.7L962.7,795.3L964.0,807.0L965.2,818.7L966.4,830.5L967.6,842.3L968.8,854.2L969.9,866.1L971.0,878.0"/>
    <path d="M1017.7,17.9L1016.7,29.7L1015.7,41.4L1014.7,53.2L1013.6,64.9L1012.5,76.6L1011.4,88.3L1010.3,99.9L1009.1,111.4L1007.9,123.0L1006.7,134.4L1005.5,145.8L1004.3,157.2L1003.1,168.5L1001.9,179.7L1000.7,190.9L999.5,202.0L998.3,213.1L997.1,224.0L996.0,234.9L994.8,245.8L993.7,256.5L992.6,267.2L991.6,277.8L990.6,288.4L989.6,298.9L988.6,309.3L987.8,319.6L986.9,329.9L986.1,340.2L985.4,350.3L984.7,360.4L984.1,370.5L983.6,380.6L983.1,390.6L982.7,400.5L982.4,410.4L982.1,420.4L981.9,430.2L981.8,440.1L981.8,450.0L981.8,459.9L981.9,469.8L982.1,479.6L982.4,489.6L982.7,499.5L983.1,509.4L983.6,519.4L984.1,529.5L984.7,539.6L985.4,549.7L986.1,559.8L986.9,570.1L987.8,580.4L988.6,590.7L989.6,601.1L990.6,611.6L991.6,622.2L992.6,632.8L993.7,643.5L994.8,654.2L996.0,665.1L997.1,676.0L998.3,686.9L999.5,698.0L1000.7,709.1L1001.9,720.3L1003.1,731.5L1004.3,742.8L1005.5,754.2L1006.7,765.6L1007.9,777.0L1009.1,788.6L1010.3,800.1L1011.4,811.7L1012.5,823.4L1013.6,835.1L1014.7,846.8L1015.7,858.6L1016.7,870.3L1017.7,882.1"/>
    <path d="M1064.8,14.2L1064.0,25.9L1063.1,37.6L1062.2,49.2L1061.2,60.8L1060.3,72.4L1059.3,84.0L1058.3,95.5L1057.3,107.1L1056.2,118.5L1055.2,129.9L1054.1,141.3L1053.1,152.7L1052.0,164.0L1051.0,175.2L1049.9,186.4L1048.8,197.5L1047.8,208.6L1046.8,219.6L1045.7,230.6L1044.7,241.5L1043.8,252.4L1042.8,263.2L1041.9,273.9L1041.0,284.6L1040.1,295.3L1039.3,305.9L1038.5,316.4L1037.8,326.9L1037.1,337.3L1036.5,347.7L1035.9,358.1L1035.3,368.4L1034.9,378.7L1034.5,388.9L1034.1,399.1L1033.8,409.3L1033.6,419.5L1033.4,429.7L1033.3,439.8L1033.3,450.0L1033.3,460.2L1033.4,470.3L1033.6,480.5L1033.8,490.7L1034.1,500.9L1034.5,511.1L1034.9,521.3L1035.3,531.6L1035.9,541.9L1036.5,552.3L1037.1,562.7L1037.8,573.1L1038.5,583.6L1039.3,594.1L1040.1,604.7L1041.0,615.4L1041.9,626.1L1042.8,636.8L1043.8,647.6L1044.7,658.5L1045.7,669.4L1046.8,680.4L1047.8,691.4L1048.8,702.5L1049.9,713.6L1051.0,724.8L1052.0,736.0L1053.1,747.3L1054.1,758.7L1055.2,770.1L1056.2,781.5L1057.3,792.9L1058.3,804.5L1059.3,816.0L1060.3,827.6L1061.2,839.2L1062.2,850.8L1063.1,862.4L1064.0,874.1L1064.8,885.8"/>
    <path d="M1112.1,11.1L1111.4,22.6L1110.6,34.2L1109.8,45.8L1109.0,57.3L1108.2,68.8L1107.4,80.3L1106.5,91.8L1105.7,103.3L1104.8,114.7L1103.9,126.1L1103.0,137.4L1102.1,148.7L1101.2,160.0L1100.3,171.3L1099.4,182.5L1098.5,193.6L1097.6,204.8L1096.7,215.8L1095.9,226.9L1095.0,237.9L1094.2,248.8L1093.4,259.7L1092.6,270.6L1091.8,281.4L1091.1,292.2L1090.4,302.9L1089.7,313.6L1089.1,324.2L1088.5,334.9L1088.0,345.4L1087.5,356.0L1087.0,366.5L1086.6,377.0L1086.3,387.5L1086.0,397.9L1085.7,408.4L1085.5,418.8L1085.4,429.2L1085.3,439.6L1085.3,450.0L1085.3,460.4L1085.4,470.8L1085.5,481.2L1085.7,491.6L1086.0,502.1L1086.3,512.5L1086.6,523.0L1087.0,533.5L1087.5,544.0L1088.0,554.6L1088.5,565.1L1089.1,575.8L1089.7,586.4L1090.4,597.1L1091.1,607.8L1091.8,618.6L1092.6,629.4L1093.4,640.3L1094.2,651.2L1095.0,662.1L1095.9,673.1L1096.7,684.2L1097.6,695.2L1098.5,706.4L1099.4,717.5L1100.3,728.7L1101.2,740.0L1102.1,751.3L1103.0,762.6L1103.9,773.9L1104.8,785.3L1105.7,796.7L1106.5,808.2L1107.4,819.7L1108.2,831.2L1109.0,842.7L1109.8,854.2L1110.6,865.8L1111.4,877.4L1112.1,888.9"/>
    <path d="M1159.3,8.4L1158.7,19.9L1158.1,31.4L1157.5,42.9L1156.8,54.4L1156.1,65.8L1155.4,77.3L1154.7,88.7L1154.0,100.1L1153.3,111.5L1152.6,122.8L1151.8,134.1L1151.1,145.4L1150.3,156.7L1149.6,168.0L1148.9,179.2L1148.1,190.4L1147.4,201.5L1146.7,212.6L1145.9,223.7L1145.2,234.8L1144.5,245.8L1143.9,256.8L1143.2,267.7L1142.6,278.7L1142.0,289.5L1141.4,300.4L1140.9,311.2L1140.3,322.0L1139.9,332.8L1139.4,343.5L1139.0,354.3L1138.6,365.0L1138.3,375.6L1138.0,386.3L1137.8,396.9L1137.6,407.6L1137.4,418.2L1137.3,428.8L1137.2,439.4L1137.2,450.0L1137.2,460.6L1137.3,471.2L1137.4,481.8L1137.6,492.4L1137.8,503.1L1138.0,513.7L1138.3,524.4L1138.6,535.0L1139.0,545.7L1139.4,556.5L1139.9,567.2L1140.3,578.0L1140.9,588.8L1141.4,599.6L1142.0,610.5L1142.6,621.3L1143.2,632.3L1143.9,643.2L1144.5,654.2L1145.2,665.2L1145.9,676.3L1146.7,687.4L1147.4,698.5L1148.1,709.6L1148.9,720.8L1149.6,732.0L1150.3,743.3L1151.1,754.6L1151.8,765.9L1152.6,777.2L1153.3,788.5L1154.0,799.9L1154.7,811.3L1155.4,822.7L1156.1,834.2L1156.8,845.6L1157.5,857.1L1158.1,868.6L1158.7,880.1L1159.3,891.6"/>
  </g>
</svg>
