<svg xmlns="http://www.w3.org/2000/svg" xmlns:xlink="http://www.w3.org/1999/xlink" width="48" height="48" viewBox="0 0 48 48"><defs><path id="A" d="M959.4 500L679.8 779.7l279.6 279.7H639.9L360.2 779.7 639.9 500h319.5zM639.9 20.7L120.6 540l159.8 159.8 679-679.1H639.9z"/><clipPath id="C"><use xlink:href="#A"/></clipPath><clipPath id="E"><use xlink:href="#A"/></clipPath><clipPath id="G"><use xlink:href="#A"/></clipPath><clipPath id="I"><use xlink:href="#A"/></clipPath><linearGradient id="J" gradientUnits="userSpaceOnUse" x1="566.635" y1="970.339" x2="685.65" y2="851.324"><stop offset="0" stop-color="#1a237e" stop-opacity=".4"/><stop offset="1" stop-color="#1a237e" stop-opacity="0"/></linearGradient><clipPath id="L"><use xlink:href="#A"/></clipPath><radialGradient id="M" cx="7824.659" cy="-2855.979" r="5082.889" gradientTransform="matrix(0.25,0,0,-0.25,-1812,-622.5)" gradientUnits="userSpaceOnUse"><stop offset="0" stop-color="#fff" stop-opacity=".1"/><stop offset="1" stop-color="#fff" stop-opacity="0"/></radialGradient></defs><g transform="matrix(.044 0 0 .044 0 2)"><g clip-path="url(#C)"><path d="M520 939.5L959.4 500H639.9L360.3 779.7z" fill="#39cefd"/></g><path clip-path="url(#E)" d="M120.6 540L639.9 20.7h319.5l-679 679.1z" fill="#39cefd"/><path clip-path="url(#G)" d="M639.9 1059.3h319.5L679.8 779.7 520 939.5z" fill="#03569b"/><path clip-path="url(#I)" d="M679.8 779.7L520 939.5l237-82.1z" fill="url(#J)"/><g clip-path="url(#L)"><path d="M360.282 779.645L520.086 619.84 679.9 779.645 520.086 939.45z" fill="#16b9fd"/></g><path d="M959.4 500L679.8 779.7l279.6 279.7H639.9L360.2 779.7 639.9 500h319.5zM639.9 20.7L120.6 540l159.8 159.8 679-679.1H639.9z" fill="url(#M)"/></g></svg>